<svg id="Layer_1" data-name="Layer 1" xmlns="http://www.w3.org/2000/svg" viewBox="0 0 1024 426.62"><defs><style>.cls-1{fill:#fff;}.cls-2{fill:#eaeef4;}.cls-3{fill:#b3c2e0;}.cls-4{fill:none;}.cls-5{fill:#4267b2;}.cls-6{fill:#32363b;}</style></defs><title>Like-Button_EN_RGB_1024</title><path class="cls-1" d="M1013,391.79a22.42,22.42,0,0,1-22.41,22.41H35.4A22.4,22.4,0,0,1,13,391.79V34.9A22.4,22.4,0,0,1,35.4,12.49H990.58A22.42,22.42,0,0,1,1013,34.9Z"/><rect class="cls-2" x="18.29" y="17.86" width="989.26" height="391.58" rx="16" ry="16"/><path class="cls-3" d="M990.1.19H35.88A34.93,34.93,0,0,0,1,35.08V391.61A34.93,34.93,0,0,0,35.88,426.5H990.1A34.93,34.93,0,0,0,1025,391.61V35.08A34.93,34.93,0,0,0,990.1.19Zm22.38,391.42A22.39,22.39,0,0,1,990.1,414H35.88A22.38,22.38,0,0,1,13.5,391.61V35.08A22.37,22.37,0,0,1,35.88,12.7H990.1a22.38,22.38,0,0,1,22.38,22.38Z"/><rect class="cls-4" x="1.07" y="0.49" width="1023.85" height="426.32"/><path class="cls-1" d="M117.49,343.71a10.9,10.9,0,0,1-10.89-10.89V201.46a10.89,10.89,0,0,1,10.89-10.88h69.64a10.94,10.94,0,0,1,10.76,9.3l.44,3,3.92-3.35,36-66.79a19.72,19.72,0,0,0,2.84-11.83l-3.34-44,1.75-1.46a27.46,27.46,0,0,1,17.55-6.36c10.33,0,20.37,6.5,28.25,18.31a71.87,71.87,0,0,1,11.76,38.35,68.17,68.17,0,0,1-.77,10.2l-4.52,29.23h67.37a30.23,30.23,0,0,1,21.27,8.94,27.92,27.92,0,0,1,8.33,19.92,28.25,28.25,0,0,1-6.09,17.45l-.94,1.2,1.08,1.06a28.84,28.84,0,0,1,8.64,20.48,28.4,28.4,0,0,1-13.69,24.47l-1.25.76.57,1.35A28.19,28.19,0,0,1,379.35,272,28.55,28.55,0,0,1,362,298.31l-1.31.57.33,1.39a28.63,28.63,0,0,1-26.26,35.31h-.29l-104.58,0c-.67,0-16.65-.12-29-10.63l-2.84-2.24,0,3.45v6.61a10.9,10.9,0,0,1-10.89,10.89Z"/><polyline class="cls-5" points="451.95 318.92 451.95 136.54 476.75 136.54 476.75 295.58 564.88 295.58 564.88 318.92 451.95 318.92"/><path class="cls-5" d="M598.7,155.8c-10.8,0-15.76-8.17-15.76-17.21s5-17.22,15.76-17.22,15.76,8.17,15.76,17.22-5,17.21-15.76,17.21m-12,163.12V184.69l23.92-3.79v138Z"/><polyline class="cls-5" points="668.39 252.97 668.39 318.92 644.46 318.92 644.46 122.25 668.39 118.45 668.39 246.56 668.98 246.56 724.12 185.28 754.47 185.28 693.19 248.6 754.77 318.92 724.12 318.92 668.98 252.97 668.39 252.97"/><path class="cls-5" d="M779.77,256.18c.88,26.27,18.39,44.94,44.07,44.94,14,0,29.18-3.79,40-11.09l4.37,22.18c-12,7.3-28,11.09-44.93,11.09-40.28,0-67.71-28.89-67.71-69.74,0-43.19,28.6-72.66,66-72.66,32.39,0,51.07,20.42,51.07,52.23a79.91,79.91,0,0,1-2.92,21.3l-89.88.58v1.17m69.75-19.26v-2c0-19.85-9.34-33-30.35-33-22.76,0-36.19,18.09-38.23,35.6Z"/><path class="cls-5" d="M111.43,196.63a.39.39,0,0,0-.4.34v142a.39.39,0,0,0,.4.34h81.76a.4.4,0,0,0,.4-.34V197a.39.39,0,0,0-.4-.34Z"/><path class="cls-6" d="M393.16,234.29A30.4,30.4,0,0,0,384,212.6a30.11,30.11,0,0,0,6.45-18.49A29.62,29.62,0,0,0,381.65,173a32,32,0,0,0-22.47-9.44H293.79L298,136.27a69.11,69.11,0,0,0,.79-10.46c0-27-18.22-58.35-41.7-58.35a29.15,29.15,0,0,0-18.63,6.75l-2.42,2,3.4,44.83a17.74,17.74,0,0,1-.45,5.64,18,18,0,0,1-2.17,5.23l-35.91,66.55-1.35,1.15a12.59,12.59,0,0,0-12.43-10.75H117.49a12.6,12.6,0,0,0-12.59,12.58V332.82a12.6,12.6,0,0,0,12.59,12.58h69.64a12.59,12.59,0,0,0,12.58-12.58v-6.61l.1.07c12.83,10.92,29.41,11,30.11,11h0l104.63,0h.33a30.37,30.37,0,0,0,27.82-37.41,30.32,30.32,0,0,0,16-39.66A30.22,30.22,0,0,0,393.16,234.29ZM187.47,332.82a.36.36,0,0,1-.34.34H117.49a.35.35,0,0,1-.34-.34V201.46a.36.36,0,0,1,.34-.34h69.64a.37.37,0,0,1,.34.34V332.82Zm180.74-81.23-8.3,2.59,5.23,6.94a18.06,18.06,0,0,1-11.45,28.72l-8.3,1.38,3.88,7.47a17.87,17.87,0,0,1,2,8.31,18.09,18.09,0,0,1-16.94,18l-104.42,0c-.31,0-12.94-.24-22.2-8.12a24.75,24.75,0,0,0-5.79-3.8l-2.24-1V215.61l10.89-9.31,36.75-68.13a30.28,30.28,0,0,0,4.3-18l-2.91-38.22a16.8,16.8,0,0,1,8.35-2.22c15.87,0,29.46,25.35,29.46,46.11a57.4,57.4,0,0,1-.65,8.6l-6.39,41.37h79.67A19.64,19.64,0,0,1,373,181.61,17.47,17.47,0,0,1,378.23,194a18,18,0,0,1-7.2,14.29l-7.41,5.62,8.09,4.59a18.11,18.11,0,0,1-3.5,33.06Z"/></svg>