<svg version="1" xmlns="http://www.w3.org/2000/svg" width="933.333" height="933.333" viewBox="0 0 700.000000 700.000000"><path d="M444.7 23.6c-.1.1-3.6.4-7.7.7-30.6 2.2-56.8 13.1-75.7 31.4-6.9 6.7-18.3 21-18.3 23s-2.5 3.1-8.5 3.7c-3.3.4-6.7.9-7.5 1.1-.8.3-2.9.7-4.5.9-12.7 1.9-32.5 7.8-46.5 13.8-17.2 7.5-40.3 20.6-39.5 22.5.2.7-.2 1-1 .6-1.4-.5-11.1 6.3-20.4 14.2-10.1 8.6-27.1 26-26.6 27.2.2.8.1 1.2-.4.9-1-.7-3.2 1.7-12 13.3-4 5.2-6.9 10.1-6.7 10.8.3.8.2 1.1-.3.8-1-.6-4.7 4.5-9.3 12.5-7 12.3-9.7 17.8-9.1 18.4.3.3.2.6-.4.6-.5 0-1.8 1.9-2.8 4.2-1 2.4-3 6.8-4.3 9.8-4.5 10.2-12.7 35.8-14.8 46.5-.2 1.1-1 5.4-1.9 9.5-.8 4.1-1.7 9.5-2 12-.3 2.5-.8 6.1-1 8-.7 5.8-1.7 23.1-1.7 29.5-.1 8.8 1.1 31.6 1.7 34.5.3 1.4.8 4.5 1.1 7 .5 4.7.7 5.8 1.9 12.5 1 5.5 1.4 7.4 2.5 12 2 8.7 2.3 9.5 3 9 .5-.3.6.3.4 1.2-.3 1 .7 5.3 2.1 9.7 1.4 4.3 2.4 8 2.2 8.3-.3.2-2.4-.1-4.8-.6-10-2.1-16.5-2.4-62.5-2.6l-48.2-.1v238.2h18.9l18.9-.1V569.2l24.3.3c30.8.4 36.4 1.8 47.3 11.8 7.1 6.5 13.7 16.7 27.4 42.2 6.2 11.6 12.9 24.1 15 28 2.1 3.8 5 9.3 6.5 12l2.6 5 19.7-.1c10.8-.1 20-.2 20.4-.3.4 0-1-3.1-3.1-6.9-2.1-3.7-5.9-10.8-8.6-15.7-4.7-8.7-19-35.1-26.3-48.5-8.6-15.7-20.2-29.9-29.5-36.2l-6-4.1 4.5-1.7c13.9-5.3 28.5-20.7 31.4-33.3.5-2.4 2.4-3.9 2.4-1.9 0 1.5 5.2 6.2 6.2 5.6.6-.4.8-.3.4.4-.9 1.5 21.9 23.6 25.6 24.8 1 .3 1.8.9 1.8 1.4 0 1.4 9.9 8.2 11 7.5.6-.4.9-.1.8.5-.2.7.6 1.7 1.7 2.3 1.1.7 2.2 1.4 2.5 1.7 1.5 1.7 18.6 11.7 22.3 13.1 1.5.6 2.8 1.8 2.8 2.7.1 1 .3 20.8.4 44.2.1 23.4.3 43 .4 43.5.1.7 27.7 1 82.9 1h82.7l.3-15.1.3-15.1-61.8-.1c-34 0-63-.1-64.6-.1l-2.7-.1.1-22 .1-22 2.8.5c1.6.3 4 .9 5.4 1.5 2.2.8 7.4 1.9 22.1 4.5 14.9 2.6 53.5 2.6 66.5 0 1.4-.3 4.1-.8 6-1.1 6.8-1 7.5-1.2 12-2.4 2.5-.7 5.2-1.3 6-1.5 4.3-.8 10.6-2.8 11.6-3.6.7-.5 1.6-.8 2-.7 1.7.5 17.7-5.8 28.7-11.4 4.2-2.1 5.8-2.5 6.1-1.6.3.7 1 3.8 1.7 6.8 9.3 41.9 39.5 72.9 81.4 83.4 13.7 3.4 21.1 4.1 42.5 4 20.4-.2 30.3-1.7 47.7-7.5 8.9-2.9 27.3-11.7 30.4-14.5 1.3-1.1 1.5-4.2 1.3-19.6 0-10.1-.2-18.4-.3-18.6 0-.1-1.7 1.2-3.7 3-5 4.6-12.8 9.9-21.7 14.8-28.5 15.6-69.2 17.8-97 5.2-26.3-12-41.8-37.4-44.3-73-.7-10.3-1.9-8.2 10.2-18.7 11.9-10.4 24.8-24.1 23.9-25.5-.3-.5 0-.8.7-.5.7.3 2.3-1 3.5-2.8 1.3-1.8 3.1-4.2 4-5.3 7.2-8 22.5-32.6 29.1-46.7l3.2-6.7 5.7-.1c3.2-.1 6.7-.2 7.8-.2 19.8-.2 43.5 6.8 61.5 18.2 2.8 1.8 2.4 1.5 10.9 8.1 3.5 2.8 6.4 5 6.6 5 .1 0 .1-8.6.1-19.2l-.1-19.1-9.9-5.3c-20-10.5-45.1-16.9-68.9-17.3-2.3-.1-2.6-.4-1.9-1.9.9-1.5 4.9-16.9 5.8-21.7.2-1.1.8-4.3 1.4-7 .6-2.8 1.3-6.2 1.5-7.8 1.5-8.7 1.4-7.7 3-24.7.4-3.6.6-14.4.5-24-.2-19.7-.3-22-1-22-.3 0-.4-1.8-.2-4s0-4-.5-4-.8-1.3-.7-2.9c.2-2.5-1.3-11.8-4-25.6-1.6-8.1-6.3-23.7-10.8-36-6.2-17-15.6-36.7-17-35.9-.5.3-.7.2-.6-.3.5-1.6-2.4-7.3-3.5-6.6-.5.3-.7.1-.4-.5.7-1-13.7-23.4-15.4-24-.5-.2-.9-.8-.9-1.4 0-.5-.6-1.5-1.2-2.2-.7-.7-3.3-3.7-5.8-6.7-4-4.9-26.8-27.9-31.5-31.9-6-5-15.6-12-16.4-12-.5 0-1.1-.4-1.3-.8-.4-1-9.4-7.2-10.4-7.2-.4 0-1.5-.6-2.3-1.4-2.4-2.1-20.3-11.2-30.5-15.6-13.4-5.6-30.8-10.9-41-12.5-1.6-.3-4.5-.9-6.5-1.4-2-.5-6.5-1.3-10.1-1.7-3.6-.4-6.8-.9-7.2-1-.5-.1-1-.2-1.3-.3-.3 0 1.4-2 3.8-4.4 16.4-16.5 37.1-23.7 66.4-23.2 25.9.5 47.8 8.1 68.2 23.6 5 3.8 9.3 6.9 9.5 6.9.3 0 .4-8.3.4-18.5V46.9l-4.1-2.6c-16.2-10.3-40.7-18-62.9-19.9-7.7-.6-21.7-1.1-22.1-.8zM384 159.8c12.2.3 33.5 3.3 35 4.9.3.3-2.2.2-5.5-.1-5.4-.7-11.6-1.1-29.5-2.1-3-.1-8.1-.3-11.2-.4-4.3-.1-5.8-.5-5.8-1.5 0-1.1 1.3-1.4 5.5-1.1 3.6.2 5.5-.1 5.5-.9s.2-.8.8 0c.4.6 2.7 1.1 5.2 1.2zm-57 1.8c0 1.8-2.4 3.5-12.6 9.1-6.9 3.7-13.4 7.6-14.5 8.6-1 1-1.9 1.5-1.9 1.2 0-.8-13 8.9-18 13.5-9 8.3-12.6 11.9-20 19.6-10.4 10.8-19 20.9-19 22.2 0 .6-.4 1.2-.8 1.4-2.6 1-11.4 15.2-19.2 30.7-7.5 15-9.3 23-10.6 46.1-1 20.5-1 21.5 0 22.9.8 1.1.8 1.3-.1.7-1-.5-1.3 1.9-1.4 11.1-.1 12.1-.5 27.8-1.1 43.8-.3 8.9-.3 9 2.1 9.3 1.9.3 2.1.6 1 1.3-1.1.7-.6 2.3 2.7 8.6 2.3 4.3 6.2 11.6 8.6 16.3 6.9 13 8.9 16.4 10.2 17.2.6.4.7.8.3.8-1.1 0 9.4 15.1 11 15.7.7.3 1.1.9.8 1.3-.3.4 3.5 4.9 8.3 10 8.6 9.1 12.7 14.3 8.7 11-4.1-3.4-20.1-20.1-19.7-20.5.3-.3 0-.5-.6-.5s-3-2.5-5.3-5.5-4.6-5.2-5.2-4.8c-.5.3-.7.1-.4-.4.4-.6-.5-2.8-2-4.9-1.4-2.2-5.8-9.9-9.8-17.2-3.9-7.2-7.5-12.9-8-12.5-.4.5-.5.3-.2-.3.4-.7-1.6-5.5-4.4-10.8l-5-9.7.6-47.2c.8-59.5.8-59.7 4-69.3 1.9-5.7 10.6-24.5 12.2-26.5.7-.8 1.3-1.9 1.3-2.3 0-1 12-19.7 13.4-21.1.6-.6 2.3-2.6 3.7-4.5 8-10.6 31.9-34.4 42.4-42.3 4.4-3.2 8.3-6.4 8.7-7.1.4-.6.8-.7.8-.2 0 .5.6.4 1.3-.2.6-.6 8.3-4.7 16.9-9.1 16.4-8.4 20.8-9.6 20.8-5.5zm65.4 8.9c36.4 1.9 40.8 3.5 64.1 23.6 14.8 12.8 39.9 37.9 38.9 38.8-1.2 1.1-12.4 4.5-20.4 6.2-7.1 1.5-32.2 1.9-40.5.6-2.7-.4-6.3-1.7-7.9-2.9-1.6-1.2-3.5-2.1-4.2-2.1-.7 0-1.2-.5-1.1-1.1.3-1.8-9.3-5.8-16.7-7-7-1.1-7.2-1.1-14.6-8.6-10.8-10.8-18-25.3-21.8-44.2l-.9-4.7 6.9.4c3.9.2 12 .7 18.2 1zm-62.6 9c1.6 8.6 1.8 9.3 4.2 16.5 2.4 6.8 8.4 19.2 12.1 24.7 1.5 2.4 1.7 3.3.7 3.4-8.6.8-16.4 3.2-16 4.8.1.7-.2 1-.8.6-.5-.3-3.4 1-6.2 2.9-7.6 5.2-8.8 6.2-8.8 7.5 0 .7-.4 1-.9.7-.9-.6-14.3 13-21.6 21.8-2.2 2.6-4.5 5.3-5.1 5.9-2.9 3.3-18.4 25.4-18.4 26.3 0 .4-1.7 3-3.7 5.8l-3.8 5.1.1 17.5c.2 29.7 1.5 57.4 2.8 58.2.8.6.8.8-.1.8-1.2 0-1.1 1.5.8 9.7 1.4 6.5 6.4 14.9 18.1 30.5 4.4 6 5.4 7.8 4 7.9-.9.1-6.9.2-13.2.3l-11.5.1-.1 20c-.1 15-.4 19.9-1.3 19.7-1.1-.2-3.8-2.9-9.6-9.7-3.8-4.4-14.5-20.2-14.5-21.3 0-.6-.3-1.2-.7-1.4-.5-.2-2.4-3.4-4.3-7.1-10.8-20.9-15.2-29.2-16.1-29.7-.5-.4-.7-7.2-.3-16.6.3-8.7.6-18.5.7-21.7.1-3.2-.2-5.7-.8-5.7-.7 0-.7-.3 0-.8 1.2-.8 1.4-6.7.3-7.8-.4-.4-.4-1.2.1-1.8.5-.6 1.1-9.7 1.5-20.1.3-10.5.8-20.4 1-22 .3-1.7.8-5 1-7.5.3-2.5.8-5.8 1.1-7.5.8-3.6 5.4-15.6 6.6-17 .5-.5.9-1.7.9-2.7 0-1 .3-1.8.8-1.8.4 0 1.5-1.7 2.5-3.8 2-4.3 6.6-12.5 7.6-13.2.3-.3 1.9-2.5 3.6-5 4.5-6.8 14.2-18.4 21.8-26.2 3.7-3.8 6.5-7.4 6.1-7.9-.3-.5-.1-.8.5-.7 1.5.4 13.1-10.3 12.4-11.5-.3-.5-.2-.7.3-.4.5.3 2.5-.8 4.4-2.5 7.3-6.3 16.6-12.5 28.2-18.6 2.6-1.3 4.5-2.9 4.1-3.5-.3-.6-.1-.7.5-.3.6.4 2.4 0 3.9-.8 1.6-.8 3.1-1.1 3.4-.8.3.4 1.1 3.4 1.7 6.7zm191 96l8.2 16.4-.5 22.8c-.2 12.5-.7 36.4-1 53.1l-.6 30.4-4.2 7.8c-8.2 15.4-18 32.6-21.1 36.9-1.7 2.4-3.5 5.1-4.1 6-4.8 8.2-39.4 43.3-52 52.9-11.7 8.9-31.9 18.1-43.5 19.8-1.9.3-4.6.7-6 1-4.9.8-27.8 1.7-47.5 1.8l-20 .1-5.5-3.6c-3-1.9-6.2-3.8-7-4.2-.8-.3-4.6-2.8-8.5-5.4l-7-4.8v-45.8h6c11.2.1 12 .3 15 2.9 3.5 3 6.8 4.8 11 5.9 1.7.5 3.7 1 4.5 1.3.8.2 16.1.5 33.9.6 30.4.3 39.9-.2 44.6-2.4 1.1-.5 3.1-1.2 4.5-1.6 5.4-1.5 19.1-13.5 32.6-28.5 4.5-5 15.5-19.5 20-26.4 2.1-3.3 4.2-6.2 4.5-6.5 1.5-1.2 2.8-5 2.3-6.4-.3-.9-.1-1.6.5-1.6.9 0 1-3.6.5-13.3-.3-7.2-.8-17-.9-21.7-1.3-30.3-1.6-36-3.1-53-.8-9.2-1.2-11.7-3.1-18.8-1.3-5.1-2-6.2-3.7-6.2-1.6 0-1.7-.3-.7-.9 1.1-.7 1.1-1.3 0-3.2-1.5-3-6.1-9.2-7.4-10.1-.5-.4.8-.8 3-.9 2.2 0 4.9-.2 6-.4 1.1-.2 3.6-.5 5.5-.8 8.2-1.1 17.1-3.3 25.5-6.3 5-1.8 9.5-3.2 10.1-3.3.6-.1 4.7 7.3 9.2 16.4zm-64.4.7c7.7 8.7 10.6 16.2 12.1 30.8.3 3 .8 6.8 1 8.5.3 1.6.7 8.4 1 15 .3 6.6.8 16 1.1 21 .3 4.9.6 11.2.6 14 0 2.7.5 5.3 1.2 5.7.7.5.7.8 0 .8-1 0-1 7.1 0 19.8.4 5 .2 5.7-5.4 14-7.9 12-14.5 20.7-21.5 28.7-3.3 3.7-5.8 7.3-5.7 7.9.2.6 0 .7-.4.3-.4-.4-3.6 2-7.1 5.5-3.4 3.4-6.5 5.9-6.9 5.6-.3-.4-.7-2.4-.8-4.5-.2-4-.6-3.3 11.2-16.3 1.8-1.9 3-4 2.8-4.7-.3-.7 0-1 .7-.8.7.2 3.7-3.1 6.7-7.5s5.8-7.9 6.3-8c.4 0 .7-.6.7-1.4 0-.7 1.3-2.8 2.9-4.7 1.6-1.8 2.7-3.7 2.5-4.1-.3-.4-.1-.8.4-.8.6 0 2-1.7 3.2-3.7 2.1-3.5 2.2-4.6 1.7-19.8-.3-8.8-.6-16-.6-16-.1 0-.4-6.8-.6-15-.9-29.7-2.4-52-3.5-52-.1 0-.3-1.4-.4-3-.1-1.7-.6-3.9-1-5-1.4-3.8-6-12.5-6.7-12.5-.4 0-.9-.7-1.3-1.5-1.1-2.9 1.3-1.4 5.8 3.7zm-80.1 17.1c7.7 4.6 14.1 13.3 18.4 25.1 2.6 7.2 3.6 16 3.4 29.6-.3 18.8-5.3 31.8-16.9 43.7-9.9 10.1-25.3 9.8-35.2-.7-6.5-7-10.2-13.4-13.3-23.5-4.1-13.1-4.3-31.8-.6-45.8 2.6-9.9 12-23.7 19-28 6.9-4.2 18.4-4.4 25.2-.4zM117.8 461.7c21 4.8 30.7 17.3 30.4 39.5-.3 19.4-9.4 31-28.7 36.4-4.8 1.3-11.5 1.7-33.2 1.9l-27.3.3v-79.9l26.1.2c19.1.1 27.8.5 32.7 1.6zm298.6-.8c-.2.3-1 .6-1.7.8-.7.1-3 .7-5.2 1.3-2.2.6-7.9 1.1-12.8 1.1-6.4 0-8.5.4-8 1.2.5.9.3.9-.8.1-.9-.7-8-1.1-20.9-1-10.7.1-20.9-.1-22.7-.5-1.8-.4-3.6-.2-4.2.4-.8.8-1.1.8-1.1 0 0-.7-1-1.3-2.2-1.5-1.3-.2 9.9-.3 24.7-.3 14.9.1 28-.2 29.3-.6 1.3-.5 2.2-.5 2.2.2 0 .6.7.6 1.8.1.9-.5 3.7-1 6.2-1.1 2.5-.2 4.6-.4 4.7-.4.4-.5 11.1-.2 10.7.2zM24.8 27.8l-3.6.3V266H59v-47c0-25.9.3-47 .8-47.1.4 0 14-.1 30.2-.3 16.3-.1 30-.5 30.5-.8.6-.3 3.5-.9 6.5-1.3 8-1 21.8-5.7 29.7-10 13.7-7.7 24.6-21.9 28.9-38 2.3-8.8 2.8-28.3.8-38.6-3.7-19.9-15.8-36-33.4-44.6-7.5-3.7-18-7.1-27.5-8.8-7.8-1.4-87.8-2.8-100.7-1.7zm90.7 31.1c17.9 3.8 29.1 14.8 32 31.6 4 23.8-5.2 41-26.1 48.7-5.4 1.9-8.4 2.2-34.1 2.6l-28.3.4V57.4l25.3.1c15.8.1 27.4.6 31.2 1.4z"/></svg>